<svg xmlns="http://www.w3.org/2000/svg" width="720" height="720" id="map"><script href="../svgscript.js" type="text/javascript"></script><g><path id="cell-00000" onclick="window.parent.postMessage({ event: 'click', elementId: this.id }, '*')" d="M 177.1862814964375 262.5296634599402 L 206.75283987216113,353.7047681066609 L 169.3376265755187,391.72145729421965 L 106.48408612138563,374.8201072323261 L 101.82586871788655,295.01276119587317 Z" fill="#567d46" stroke="#333333"></path></g><g><path id="cell-00001" onclick="window.parent.postMessage({ event: 'click', elementId: this.id }, '*')" d="M 432.58669752144124 330.3656182492944 L 418.42535543368626,260.45154135192297 L 442.77088588505154,223.10420401192943 L 525.8593846712037,225.22776162505994 L 554.7698756351576,260.2528889671192 L 554.2103537195966,290.49813891070824 L 488.6837154990846,344.82698931000755 Z" fill="#567d46" stroke="#333333"></path></g><g><path id="cell-00002" onclick="window.parent.postMessage({ event: 'click', elementId: this.id }, '*')" d="M 590.1270045742639 0 L 540.129087384564,81.28324688010423 L 457.2978713365593,49.87536529345674 L 451.96067916017114,0 Z" fill="#0077be" stroke="#333333"></path></g><g><path id="cell-00003" onclick="window.parent.postMessage({ event: 'click', elementId: this.id }, '*')" d="M 0 529.3844774230851 L 109.13853781655607,593.3131840614209 L 80.57731823216292,641.1782483846029 L 0,640.8107062372482 Z" fill="#0077be" stroke="#333333"></path></g><g><path id="cell-00004" onclick="window.parent.postMessage({ event: 'click', elementId: this.id }, '*')" d="M 302.2896887390484 339.9481494208904 L 395.1088451265403,364.89589449403974 L 393.5582804918661,448.92265176056026 L 357.7286661861046,466.2236384380091 L 280.7824252803371,425.30355658571773 L 277.302561602009,364.555360411739 Z" fill="#567d46" stroke="#333333"></path></g><g><path id="cell-00005" onclick="window.parent.postMessage({ event: 'click', elementId: this.id }, '*')" d="M 393.5582804918661 448.92265176056026 L 443.265995278991,474.28145037663637 L 451.21351328569006,572.2819143817588 L 425.4304935803363,597.0686573682738 L 353.75037922615195,582.5214292139018 L 331.0642398348029,530.6105118692022 L 357.7286661861046,466.2236384380091 Z" fill="#567d46" stroke="#333333"></path></g><g><path id="cell-00006" onclick="window.parent.postMessage({ event: 'click', elementId: this.id }, '*')" d="M 303.53863905190866 635.4958637943638 L 313.77037528620417,720 L 180.40134143475075,720 L 189.86019310849258,645.385681142006 L 239.11468199466984,608.3332808616476 Z" fill="#0077be" stroke="#333333"></path></g><g><path id="cell-00007" onclick="window.parent.postMessage({ event: 'click', elementId: this.id }, '*')" d="M 800 136.87724221187358 L 670.5464525522299,111.56302821984167 L 649.6234542804386,0 L 800,0 Z" fill="#0077be" stroke="#333333"></path></g><g><path id="cell-00008" onclick="window.parent.postMessage({ event: 'click', elementId: this.id }, '*')" d="M 353.75037922615195 582.5214292139018 L 425.4304935803363,597.0686573682738 L 443.66733309512995,720 L 313.77037528620417,720 L 303.53863905190866,635.4958637943638 Z" fill="#0077be" stroke="#333333"></path></g><g><path id="cell-00009" onclick="window.parent.postMessage({ event: 'click', elementId: this.id }, '*')" d="M 0 640.8107062372482 L 80.57731823216292,641.1782483846029 L 107.71151661073495,720 L 0,720 Z" fill="#0077be" stroke="#333333"></path></g><g><path id="cell-00010" onclick="window.parent.postMessage({ event: 'click', elementId: this.id }, '*')" d="M 522.1723793212984 418.62625004206654 L 600.4037267676732,397.5527740372221 L 653.8050771862579,456.5604729881451 L 641.0925580416834,492.4072275307366 L 561.4030986627413,511.3537442167007 L 511.28992843459287,446.36236474987766 Z" fill="#567d46" stroke="#333333"></path></g><g><path id="cell-00011" onclick="window.parent.postMessage({ event: 'click', elementId: this.id }, '*')" d="M 554.7698756351576 260.2528889671192 L 649.1584219608292,216.49879158585185 L 683.5111670333589,246.18174093660969 L 672.5453542929042,320.0080610557783 L 614.7679839163258,340.400782579902 L 554.2103537195966,290.49813891070824 Z" fill="#567d46" stroke="#333333"></path></g><g><path id="cell-00012" onclick="window.parent.postMessage({ event: 'click', elementId: this.id }, '*')" d="M 177.1862814964375 262.5296634599402 L 101.82586871788655,295.01276119587317 L 0,249.62350599953888 L 0,181.60074763770587 L 102.36781926868944,153.802902512401 L 181.15321344749592,216.9941848343688 L 184.3660385585065,249.9904629794616 Z" fill="#0077be" stroke="#333333"></path></g><g><path id="cell-00013" onclick="window.parent.postMessage({ event: 'click', elementId: this.id }, '*')" d="M 614.7679839163258 340.400782579902 L 672.5453542929042,320.0080610557783 L 712.8396455492874,354.2763494606414 L 697.0184913380526,436.63247706666976 L 653.8050771862579,456.5604729881451 L 600.4037267676732,397.5527740372221 Z" fill="#567d46" stroke="#333333"></path></g><g><path id="cell-00014" onclick="window.parent.postMessage({ event: 'click', elementId: this.id }, '*')" d="M 451.21351328569006 572.2819143817588 L 538.2623112852391,575.5112037397815 L 546.5160640919432,586.9676299072131 L 553.5238223401687,651.9512717808065 L 518.549300453515,720 L 443.66733309512995,720 L 425.4304935803363,597.0686573682738 Z" fill="#0077be" stroke="#333333"></path></g><g><path id="cell-00015" onclick="window.parent.postMessage({ event: 'click', elementId: this.id }, '*')" d="M 553.5238223401687 651.9512717808065 L 546.5160640919432,586.9676299072131 L 665.6594755783577,587.049778411934 L 655.682281949898,655.1830875934278 Z" fill="#567d46" stroke="#333333"></path></g><g><path id="cell-00016" onclick="window.parent.postMessage({ event: 'click', elementId: this.id }, '*')" d="M 432.58669752144124 330.3656182492944 L 488.6837154990846,344.82698931000755 L 522.1723793212984,418.62625004206654 L 511.28992843459287,446.36236474987766 L 443.265995278991,474.28145037663637 L 393.5582804918661,448.92265176056026 L 395.1088451265403,364.89589449403974 Z" fill="#567d46" stroke="#333333"></path></g><g><path id="cell-00017" onclick="window.parent.postMessage({ event: 'click', elementId: this.id }, '*')" d="M 106.48408612138563 374.8201072323261 L 169.3376265755187,391.72145729421965 L 182.2610479962026,447.37060186113695 L 134.09268196942617,494.08816908073925 L 91.40341328350254,477.5519855637673 L 76.3888275814269,398.22626837541134 Z" fill="#567d46" stroke="#333333"></path></g><g><path id="cell-00018" onclick="window.parent.postMessage({ event: 'click', elementId: this.id }, '*')" d="M 134.09268196942617 494.08816908073925 L 147.00268302833274,539.136570816464 L 121.54629067346592,588.4730583577275 L 109.13853781655607,593.3131840614209 L 0,529.3844774230851 L 0,523.2732322600369 L 91.40341328350254,477.5519855637673 Z" fill="#0077be" stroke="#333333"></path></g><g><path id="cell-00019" onclick="window.parent.postMessage({ event: 'click', elementId: this.id }, '*')" d="M 433.63400548486993 86.54220673053369 L 355.5524388304105,84.35358949580453 L 319.19748160586755,0 L 451.96067916017114,0 L 457.2978713365593,49.87536529345674 Z" fill="#0077be" stroke="#333333"></path></g><g><path id="cell-00020" onclick="window.parent.postMessage({ event: 'click', elementId: this.id }, '*')" d="M 248.55023984986173 145.48468576722948 L 181.15321344749592,216.9941848343688 L 102.36781926868944,153.802902512401 L 132.9652726092481,92.58356360349777 L 227.10569340566792,95.72375898624465 Z" fill="#567d46" stroke="#333333"></path></g><g><path id="cell-00021" onclick="window.parent.postMessage({ event: 'click', elementId: this.id }, '*')" d="M 320.1199205622008 245.53801491113754 L 299.3360351663783,270.463993637785 L 184.3660385585065,249.9904629794616 L 181.15321344749592,216.9941848343688 L 248.55023984986173,145.48468576722948 L 311.77493282395915,164.15925379007936 Z" fill="#567d46" stroke="#333333"></path></g><g><path id="cell-00022" onclick="window.parent.postMessage({ event: 'click', elementId: this.id }, '*')" d="M 320.1199205622008 245.53801491113754 L 311.77493282395915,164.15925379007936 L 334.19615161944546,147.80328411884588 L 430.7081393088602,179.09753121019375 L 442.77088588505154,223.10420401192943 L 418.42535543368626,260.45154135192297 Z" fill="#567d46" stroke="#333333"></path></g><g><path id="cell-00023" onclick="window.parent.postMessage({ event: 'click', elementId: this.id }, '*')" d="M 800 720 L 685.1231912306824,720 L 655.682281949898,655.1830875934278 L 665.6594755783577,587.049778411934 L 679.4935654967068,568.7802050282671 L 800,566.6448035007288 Z" fill="#0077be" stroke="#333333"></path></g><g><path id="cell-00024" onclick="window.parent.postMessage({ event: 'click', elementId: this.id }, '*')" d="M 0 0 L 101.6302399168134,0 L 132.9652726092481,92.58356360349777 L 102.36781926868944,153.802902512401 L 0,181.60074763770587 Z" fill="#0077be" stroke="#333333"></path></g><g><path id="cell-00025" onclick="window.parent.postMessage({ event: 'click', elementId: this.id }, '*')" d="M 430.7081393088602 179.09753121019375 L 334.19615161944546,147.80328411884588 L 355.5524388304105,84.35358949580453 L 433.63400548486993,86.54220673053369 L 451.66811042314606,137.24677732857222 Z" fill="#567d46" stroke="#333333"></path></g><g><path id="cell-00026" onclick="window.parent.postMessage({ event: 'click', elementId: this.id }, '*')" d="M 299.3360351663783 270.463993637785 L 302.2896887390484,339.9481494208904 L 277.302561602009,364.555360411739 L 206.75283987216113,353.7047681066609 L 177.1862814964375,262.5296634599402 L 184.3660385585065,249.9904629794616 Z" fill="#567d46" stroke="#333333"></path></g><g><path id="cell-00027" onclick="window.parent.postMessage({ event: 'click', elementId: this.id }, '*')" d="M 331.0642398348029 530.6105118692022 L 353.75037922615195,582.5214292139018 L 303.53863905190866,635.4958637943638 L 239.11468199466984,608.3332808616476 L 230.74591827110694,550.6425576310199 L 251.0712976480853,524.6564395671551 Z" fill="#567d46" stroke="#333333"></path></g><g><path id="cell-00028" onclick="window.parent.postMessage({ event: 'click', elementId: this.id }, '*')" d="M 433.63400548486993 86.54220673053369 L 457.2978713365593,49.87536529345674 L 540.129087384564,81.28324688010423 L 544.5659681768609,130.4212479304707 L 451.66811042314606,137.24677732857222 Z" fill="#567d46" stroke="#333333"></path></g><g><path id="cell-00029" onclick="window.parent.postMessage({ event: 'click', elementId: this.id }, '*')" d="M 311.77493282395915 164.15925379007936 L 248.55023984986173,145.48468576722948 L 227.10569340566792,95.72375898624465 L 264.4929237882913,0 L 319.19748160586755,0 L 355.5524388304105,84.35358949580453 L 334.19615161944546,147.80328411884588 Z" fill="#0077be" stroke="#333333"></path></g><g><path id="cell-00030" onclick="window.parent.postMessage({ event: 'click', elementId: this.id }, '*')" d="M 206.75283987216113 353.7047681066609 L 277.302561602009,364.555360411739 L 280.7824252803371,425.30355658571773 L 237.40107120114106,463.8137841868123 L 182.2610479962026,447.37060186113695 L 169.3376265755187,391.72145729421965 Z" fill="#567d46" stroke="#333333"></path></g><g><path id="cell-00031" onclick="window.parent.postMessage({ event: 'click', elementId: this.id }, '*')" d="M 430.7081393088602 179.09753121019375 L 451.66811042314606,137.24677732857222 L 544.5659681768609,130.4212479304707 L 549.9218814714791,137.14737271144043 L 525.8593846712037,225.22776162505994 L 442.77088588505154,223.10420401192943 Z" fill="#567d46" stroke="#333333"></path></g><g><path id="cell-00032" onclick="window.parent.postMessage({ event: 'click', elementId: this.id }, '*')" d="M 106.48408612138563 374.8201072323261 L 76.3888275814269,398.22626837541134 L 0,387.4117004984674 L 0,249.62350599953888 L 101.82586871788655,295.01276119587317 Z" fill="#0077be" stroke="#333333"></path></g><g><path id="cell-00033" onclick="window.parent.postMessage({ event: 'click', elementId: this.id }, '*')" d="M 488.6837154990846 344.82698931000755 L 554.2103537195966,290.49813891070824 L 614.7679839163258,340.400782579902 L 600.4037267676732,397.5527740372221 L 522.1723793212984,418.62625004206654 Z" fill="#567d46" stroke="#333333"></path></g><g><path id="cell-00034" onclick="window.parent.postMessage({ event: 'click', elementId: this.id }, '*')" d="M 544.5659681768609 130.4212479304707 L 540.129087384564,81.28324688010423 L 590.1270045742639,0 L 649.6234542804386,0 L 670.5464525522299,111.56302821984167 L 639.3603901196135,148.39488926460658 L 549.9218814714791,137.14737271144043 Z" fill="#0077be" stroke="#333333"></path></g><g><path id="cell-00035" onclick="window.parent.postMessage({ event: 'click', elementId: this.id }, '*')" d="M 264.4929237882913 0 L 227.10569340566792,95.72375898624465 L 132.9652726092481,92.58356360349777 L 101.6302399168134,0 Z" fill="#0077be" stroke="#333333"></path></g><g><path id="cell-00036" onclick="window.parent.postMessage({ event: 'click', elementId: this.id }, '*')" d="M 320.1199205622008 245.53801491113754 L 418.42535543368626,260.45154135192297 L 432.58669752144124,330.3656182492944 L 395.1088451265403,364.89589449403974 L 302.2896887390484,339.9481494208904 L 299.3360351663783,270.463993637785 Z" fill="#567d46" stroke="#333333"></path></g><g><path id="cell-00037" onclick="window.parent.postMessage({ event: 'click', elementId: this.id }, '*')" d="M 237.40107120114106 463.8137841868123 L 251.0712976480853,524.6564395671551 L 230.74591827110694,550.6425576310199 L 147.00268302833274,539.136570816464 L 134.09268196942617,494.08816908073925 L 182.2610479962026,447.37060186113695 Z" fill="#567d46" stroke="#333333"></path></g><g><path id="cell-00038" onclick="window.parent.postMessage({ event: 'click', elementId: this.id }, '*')" d="M 237.40107120114106 463.8137841868123 L 280.7824252803371,425.30355658571773 L 357.7286661861046,466.2236384380091 L 331.0642398348029,530.6105118692022 L 251.0712976480853,524.6564395671551 Z" fill="#567d46" stroke="#333333"></path></g><g><path id="cell-00039" onclick="window.parent.postMessage({ event: 'click', elementId: this.id }, '*')" d="M 518.549300453515 720 L 553.5238223401687,651.9512717808065 L 655.682281949898,655.1830875934278 L 685.1231912306824,720 Z" fill="#0077be" stroke="#333333"></path></g><g><path id="cell-00040" onclick="window.parent.postMessage({ event: 'click', elementId: this.id }, '*')" d="M 189.86019310849258 645.385681142006 L 180.40134143475075,720 L 107.71151661073495,720 L 80.57731823216292,641.1782483846029 L 109.13853781655607,593.3131840614209 L 121.54629067346592,588.4730583577275 Z" fill="#0077be" stroke="#333333"></path></g><g><path id="cell-00041" onclick="window.parent.postMessage({ event: 'click', elementId: this.id }, '*')" d="M 0 387.4117004984674 L 76.3888275814269,398.22626837541134 L 91.40341328350254,477.5519855637673 L 0,523.2732322600369 Z" fill="#0077be" stroke="#333333"></path></g><g><path id="cell-00042" onclick="window.parent.postMessage({ event: 'click', elementId: this.id }, '*')" d="M 800 479.4132731380659 L 697.0184913380526,436.63247706666976 L 712.8396455492874,354.2763494606414 L 800,338.9608870921193 Z" fill="#0077be" stroke="#333333"></path></g><g><path id="cell-00043" onclick="window.parent.postMessage({ event: 'click', elementId: this.id }, '*')" d="M 683.5111670333589 246.18174093660969 L 800,219.29220358193558 L 800,338.9608870921193 L 712.8396455492874,354.2763494606414 L 672.5453542929042,320.0080610557783 Z" fill="#0077be" stroke="#333333"></path></g><g><path id="cell-00044" onclick="window.parent.postMessage({ event: 'click', elementId: this.id }, '*')" d="M 561.4030986627413 511.3537442167007 L 641.0925580416834,492.4072275307366 L 679.4935654967068,568.7802050282671 L 665.6594755783577,587.049778411934 L 546.5160640919432,586.9676299072131 L 538.2623112852391,575.5112037397815 Z" fill="#567d46" stroke="#333333"></path></g><g><path id="cell-00045" onclick="window.parent.postMessage({ event: 'click', elementId: this.id }, '*')" d="M 443.265995278991 474.28145037663637 L 511.28992843459287,446.36236474987766 L 561.4030986627413,511.3537442167007 L 538.2623112852391,575.5112037397815 L 451.21351328569006,572.2819143817588 Z" fill="#567d46" stroke="#333333"></path></g><g><path id="cell-00046" onclick="window.parent.postMessage({ event: 'click', elementId: this.id }, '*')" d="M 230.74591827110694 550.6425576310199 L 239.11468199466984,608.3332808616476 L 189.86019310849258,645.385681142006 L 121.54629067346592,588.4730583577275 L 147.00268302833274,539.136570816464 Z" fill="#567d46" stroke="#333333"></path></g><g><path id="cell-00047" onclick="window.parent.postMessage({ event: 'click', elementId: this.id }, '*')" d="M 639.3603901196135 148.39488926460658 L 670.5464525522299,111.56302821984167 L 800,136.87724221187358 L 800,219.29220358193558 L 683.5111670333589,246.18174093660969 L 649.1584219608292,216.49879158585185 Z" fill="#0077be" stroke="#333333"></path></g><g><path id="cell-00048" onclick="window.parent.postMessage({ event: 'click', elementId: this.id }, '*')" d="M 525.8593846712037 225.22776162505994 L 549.9218814714791,137.14737271144043 L 639.3603901196135,148.39488926460658 L 649.1584219608292,216.49879158585185 L 554.7698756351576,260.2528889671192 Z" fill="#567d46" stroke="#333333"></path></g><g><path id="cell-00049" onclick="window.parent.postMessage({ event: 'click', elementId: this.id }, '*')" d="M 653.8050771862579 456.5604729881451 L 697.0184913380526,436.63247706666976 L 800,479.4132731380659 L 800,566.6448035007288 L 679.4935654967068,568.7802050282671 L 641.0925580416834,492.4072275307366 Z" fill="#0077be" stroke="#333333"></path></g><g><text id="label-0" x="151.97413566554422" y="336.0829452210028" font-size=".75em">Devex</text></g><g><text id="label-1" x="487.7302862931874" y="276.48007996810924" font-size=".75em">Albrecht</text></g><g><text id="label-4" x="334.0020131140409" y="401.96558266859415" font-size=".75em">Eswhile</text></g><g><text id="label-5" x="393.2972818142529" y="524.7635853081964" font-size=".75em">Weir</text></g><g><text id="label-10" x="581.3779679165592" y="453.8560066772552" font-size=".75em">Cambon</text></g><g><text id="label-11" x="621.1634102251312" y="278.9485256658949" font-size=".75em">Poren</text></g><g><text id="label-13" x="658.3206419279207" y="384.2236914019045" font-size=".75em">Excam</text></g><g><text id="label-15" x="605.072500704655" y="620.3071788443533" font-size=".75em">Hefwey</text></g><g><text id="label-16" x="454.8064300647721" y="404.1948137222465" font-size=".75em">Myrwey</text></g><g><text id="label-17" x="126.41110502207766" y="431.1479533295539" font-size=".75em">Fenboggen</text></g><g><text id="label-20" x="177.97003550816473" y="141.12450457702496" font-size=".75em">Islea</text></g><g><text id="label-21" x="257.0783254742032" y="215.68331951825783" font-size=".75em">Leawood</text></g><g><text id="label-22" x="375.79030036034345" y="203.50999614542332" font-size=".75em">Harwarren</text></g><g><text id="label-25" x="400.56516614211887" y="127.10389075620988" font-size=".75em">Kilchester</text></g><g><text id="label-26" x="240.76536815881505" y="307.28943663182275" font-size=".75em">Arbehn</text></g><g><text id="label-27" x="284.49967150244333" y="572.3103804570862" font-size=".75em">Farwater</text></g><g><text id="label-28" x="484.8889428139904" y="97.11243595526696" font-size=".75em">Illhust</text></g><g><text id="label-30" x="225.24595102659305" y="408.19550049483274" font-size=".75em">Redwich</text></g><g><text id="label-31" x="490.3981465150932" y="172.09463761476556" font-size=".75em">Cloust</text></g><g><text id="label-33" x="555.6711814289034" y="358.42435861960865" font-size=".75em">Salschester</text></g><g><text id="label-36" x="360.82054197898714" y="302.1860948832611" font-size=".75em">Truwich</text></g><g><text id="label-37" x="196.76862947535895" y="503.69040774874566" font-size=".75em">Mehrshire</text></g><g><text id="label-38" x="291.18622851619483" y="482.47650852958014" font-size=".75em">Gnollhaven</text></g><g><text id="label-44" x="605.1184197542426" y="553.7088610944644" font-size=".75em">Credworth</text></g><g><text id="label-45" x="500.71612229170097" y="516.052267687204" font-size=".75em">Quinciney</text></g><g><text id="label-46" x="185.36465700659733" y="586.6911589703163" font-size=".75em">Lormeir</text></g><g><text id="label-48" x="583.4096743562435" y="197.50426192127605" font-size=".75em">Bakerswich</text></g></svg>