<svg xmlns="http://www.w3.org/2000/svg" width="800" height="800" id="map" seed="0.10440970585212783" viewBox="0 0 800 800" onload="window.parent.postMessage({ event: 'register', elementId: this.id }, '*')"><script href="../svgscript.js" type="text/javascript"></script><g><path id="cell-00000" onclick="window.parent.postMessage({ event: 'click', terrainType: &quot;ocean&quot;, id: 0,  elementId: this.id }, '*')" d="M 800 800 L 606.7533966238351,800 L 641.1616550418643,645.8911992596479 L 662.0618618014252,633.0472652707758 L 800,664.7234657996024 L 800,800 Z" fill="#0077be" stroke="#333333"></path></g><g><path id="cell-00001" onclick="window.parent.postMessage({ event: 'click', terrainType: &quot;coast&quot;, id: 1,  elementId: this.id }, '*')" d="M 475.8135248533485 513.6182464464493 L 544.7957540404432,517.3840877873748 L 557.8983953743704,602.3980096624472 L 452.62088638654575,644.0087516119129 L 427.8172880260579,559.2285835974542 L 475.8135248533485,513.6182464464493 Z" fill="#FFF0c9" stroke="#333333"></path></g><g><path id="cell-00002" onclick="window.parent.postMessage({ event: 'click', terrainType: &quot;ocean&quot;, id: 2,  elementId: this.id }, '*')" d="M 131.15426966179695 213.3184486426469 L 115.60143089706494,218.6034518442306 L 70.3421588572223,186.88006102519887 L 73.29338204411498,129.83815013390424 L 129.95191366844983,97.48498678956479 L 165.80777565984974,133.18468641955147 L 131.15426966179695,213.3184486426469 Z" fill="#0077be" stroke="#333333"></path></g><g><path id="cell-00003" onclick="window.parent.postMessage({ event: 'click', terrainType: &quot;land&quot;, id: 3,  elementId: this.id }, '*')" d="M 436.71357614910676 372.6712056278518 L 470.2036964432602,425.23155401303404 L 449.3777314030487,452.92870458336796 L 408.6968839607148,457.56138245093183 L 371.0548043199513,419.5588065571445 L 378.3137348857183,385.1429565607181 L 436.71357614910676,372.6712056278518 Z" fill="#567d46" stroke="#333333"></path></g><g><path id="cell-00004" onclick="window.parent.postMessage({ event: 'click', terrainType: &quot;peak&quot;, id: 4,  elementId: this.id }, '*')" d="M 282.51585055250877 429.1325648780968 L 247.45578712787096,509.95629498964695 L 217.34047762103236,521.3228817712843 L 153.84067442864188,481.3878611781802 L 184.44660741788007,391.4445075169586 L 258.6835348710926,389.5786621973573 L 282.51585055250877,429.1325648780968 Z" fill="#eeeeee" stroke="#333333"></path></g><g><path id="cell-00005" onclick="window.parent.postMessage({ event: 'click', terrainType: &quot;coast&quot;, id: 5,  elementId: this.id }, '*')" d="M 449.3777314030487 452.92870458336796 L 475.8135248533485,513.6182464464493 L 427.8172880260579,559.2285835974542 L 377.6810550293673,530.600010720639 L 408.6968839607148,457.56138245093183 L 449.3777314030487,452.92870458336796 Z" fill="#FFF0c9" stroke="#333333"></path></g><g><path id="cell-00006" onclick="window.parent.postMessage({ event: 'click', terrainType: &quot;ocean&quot;, id: 6,  elementId: this.id }, '*')" d="M 115.60143089706494 218.6034518442306 L 92.05056500845183,283.8971639479717 L 0,257.8499981908477 L 0,213.82742837677455 L 70.3421588572223,186.88006102519887 L 115.60143089706494,218.6034518442306 Z" fill="#0077be" stroke="#333333"></path></g><g><path id="cell-00007" onclick="window.parent.postMessage({ event: 'click', terrainType: &quot;ocean&quot;, id: 7,  elementId: this.id }, '*')" d="M 237.34062848173178 141.0348599789909 L 165.80777565984974,133.18468641955147 L 129.95191366844983,97.48498678956479 L 129.67933845745534,59.6451013497462 L 162.23292360688316,0 L 290.65404448627413,0 L 277.11047022521996,122.31888225687477 L 237.34062848173178,141.0348599789909 Z" fill="#0077be" stroke="#333333"></path></g><g><path id="cell-00008" onclick="window.parent.postMessage({ event: 'click', terrainType: &quot;ocean&quot;, id: 8,  elementId: this.id }, '*')" d="M 206.49231894443614 248.37174452799184 L 213.54692275353653,263.24008097917175 L 150.62024501092432,344.30992484269876 L 112.69682902698065,334.7310037812912 L 92.05056500845183,283.8971639479717 L 115.60143089706494,218.6034518442306 L 131.15426966179695,213.3184486426469 L 206.49231894443614,248.37174452799184 Z" fill="#0077be" stroke="#333333"></path></g><g><path id="cell-00009" onclick="window.parent.postMessage({ event: 'click', terrainType: &quot;land&quot;, id: 9,  elementId: this.id }, '*')" d="M 436.71357614910676 372.6712056278518 L 451.92243930521164,339.4689239526638 L 514.3738081624999,329.2207448438898 L 538.7393657645871,372.06307696656097 L 512.2667700697926,418.93607716732214 L 470.2036964432602,425.23155401303404 L 436.71357614910676,372.6712056278518 Z" fill="#567d46" stroke="#333333"></path></g><g><path id="cell-00010" onclick="window.parent.postMessage({ event: 'click', terrainType: &quot;coast&quot;, id: 10,  elementId: this.id }, '*')" d="M 523.5584855158277 295.5529854827207 L 479.6500938141412,243.5262453713497 L 502.6630907641994,190.5559919654308 L 566.5494611086264,185.44537361489745 L 586.0912258598415,266.808609280102 L 523.5584855158277,295.5529854827207 Z" fill="#FFF0c9" stroke="#333333"></path></g><g><path id="cell-00011" onclick="window.parent.postMessage({ event: 'click', terrainType: &quot;ocean&quot;, id: 11,  elementId: this.id }, '*')" d="M 112.69682902698065 334.7310037812912 L 0,412.6836492850659 L 0,257.8499981908477 L 92.05056500845183,283.8971639479717 L 112.69682902698065,334.7310037812912 Z" fill="#0077be" stroke="#333333"></path></g><g><path id="cell-00012" onclick="window.parent.postMessage({ event: 'click', terrainType: &quot;ocean&quot;, id: 12,  elementId: this.id }, '*')" d="M 596.9065777970161 150.09608220697655 L 576.8133341971958,94.18197830902518 L 647.798081385459,0 L 673.8589848894024,0 L 720.0313168139702,115.92934281683615 L 665.8379156601331,162.4839361506612 L 596.9065777970161,150.09608220697655 Z" fill="#0077be" stroke="#333333"></path></g><g><path id="cell-00013" onclick="window.parent.postMessage({ event: 'click', terrainType: &quot;coast&quot;, id: 13,  elementId: this.id }, '*')" d="M 560.0310103839786 492.9337340985382 L 634.5010182633507,464.6823628714131 L 696.3272610812622,504.8296664295334 L 662.0618618014252,633.0472652707758 L 641.1616550418643,645.8911992596479 L 557.8983953743704,602.3980096624472 L 544.7957540404432,517.3840877873748 L 560.0310103839786,492.9337340985382 Z" fill="#FFF0c9" stroke="#333333"></path></g><g><path id="cell-00014" onclick="window.parent.postMessage({ event: 'click', terrainType: &quot;ocean&quot;, id: 14,  elementId: this.id }, '*')" d="M 557.8983953743704 602.3980096624472 L 641.1616550418643,645.8911992596479 L 606.7533966238351,800 L 482.6208055147671,800 L 434.7076370367258,677.2258077936165 L 452.62088638654575,644.0087516119129 L 557.8983953743704,602.3980096624472 Z" fill="#0077be" stroke="#333333"></path></g><g><path id="cell-00015" onclick="window.parent.postMessage({ event: 'click', terrainType: &quot;coast&quot;, id: 15,  elementId: this.id }, '*')" d="M 371.0548043199513 419.5588065571445 L 408.6968839607148,457.56138245093183 L 377.6810550293673,530.600010720639 L 345.0747918200202,533.4820433769188 L 325.57086222043085,442.1189385224341 L 371.0548043199513,419.5588065571445 Z" fill="#FFF0c9" stroke="#333333"></path></g><g><path id="cell-00016" onclick="window.parent.postMessage({ event: 'click', terrainType: &quot;ocean&quot;, id: 16,  elementId: this.id }, '*')" d="M 0 97.58826721938229 L 73.29338204411498,129.83815013390424 L 70.3421588572223,186.88006102519887 L 0,213.82742837677455 L 0,97.58826721938229 Z" fill="#0077be" stroke="#333333"></path></g><g><path id="cell-00017" onclick="window.parent.postMessage({ event: 'click', terrainType: &quot;coast&quot;, id: 17,  elementId: this.id }, '*')" d="M 378.6055059156161 294.83536813851447 L 312.3064743142652,239.01196776252033 L 328.5163003419745,171.4556238094272 L 380.9597958215164,169.51322919054599 L 427.41834223314095,255.9241483971833 L 411.2162392475747,284.1545071500678 L 378.6055059156161,294.83536813851447 Z" fill="#FFF0c9" stroke="#333333"></path></g><g><path id="cell-00018" onclick="window.parent.postMessage({ event: 'click', terrainType: &quot;land&quot;, id: 18,  elementId: this.id }, '*')" d="M 351.44211087460724 345.4866833536841 L 378.3137348857183,385.1429565607181 L 371.0548043199513,419.5588065571445 L 325.57086222043085,442.1189385224341 L 282.51585055250877,429.1325648780968 L 258.6835348710926,389.5786621973573 L 286.63272043420363,347.3290771347819 L 351.44211087460724,345.4866833536841 Z" fill="#567d46" stroke="#333333"></path></g><g><path id="cell-00019" onclick="window.parent.postMessage({ event: 'click', terrainType: &quot;coast&quot;, id: 19,  elementId: this.id }, '*')" d="M 265.0691093140919 276.7388841013912 L 286.63272043420363,347.3290771347819 L 258.6835348710926,389.5786621973573 L 184.44660741788007,391.4445075169586 L 150.62024501092432,344.30992484269876 L 213.54692275353653,263.24008097917175 L 265.0691093140919,276.7388841013912 Z" fill="#FFF0c9" stroke="#333333"></path></g><g><path id="cell-00020" onclick="window.parent.postMessage({ event: 'click', terrainType: &quot;ocean&quot;, id: 20,  elementId: this.id }, '*')" d="M 206.49231894443614 248.37174452799184 L 131.15426966179695,213.3184486426469 L 165.80777565984974,133.18468641955147 L 237.34062848173178,141.0348599789909 L 206.49231894443614,248.37174452799184 Z" fill="#0077be" stroke="#333333"></path></g><g><path id="cell-00021" onclick="window.parent.postMessage({ event: 'click', terrainType: &quot;land&quot;, id: 21,  elementId: this.id }, '*')" d="M 351.44211087460724 345.4866833536841 L 286.63272043420363,347.3290771347819 L 265.0691093140919,276.7388841013912 L 312.3064743142652,239.01196776252033 L 378.6055059156161,294.83536813851447 L 351.44211087460724,345.4866833536841 Z" fill="#567d46" stroke="#333333"></path></g><g><path id="cell-00022" onclick="window.parent.postMessage({ event: 'click', terrainType: &quot;peak&quot;, id: 22,  elementId: this.id }, '*')" d="M 0 418.4596866114062 L 115.16319716946559,494.36079349797586 L 74.72015753825971,618.3981210183537 L 0,629.4489562664579 L 0,418.4596866114062 Z" fill="#eeeeee" stroke="#333333"></path></g><g><path id="cell-00023" onclick="window.parent.postMessage({ event: 'click', terrainType: &quot;coast&quot;, id: 23,  elementId: this.id }, '*')" d="M 282.51585055250877 429.1325648780968 L 325.57086222043085,442.1189385224341 L 345.0747918200202,533.4820433769188 L 334.927679210185,540.4154918506307 L 247.45578712787096,509.95629498964695 L 282.51585055250877,429.1325648780968 Z" fill="#FFF0c9" stroke="#333333"></path></g><g><path id="cell-00024" onclick="window.parent.postMessage({ event: 'click', terrainType: &quot;ocean&quot;, id: 24,  elementId: this.id }, '*')" d="M 73.29338204411498 129.83815013390424 L 0,97.58826721938229 L 0,33.834376276124644 L 129.67933845745534,59.6451013497462 L 129.95191366844983,97.48498678956479 L 73.29338204411498,129.83815013390424 Z" fill="#0077be" stroke="#333333"></path></g><g><path id="cell-00025" onclick="window.parent.postMessage({ event: 'click', terrainType: &quot;ocean&quot;, id: 25,  elementId: this.id }, '*')" d="M 184.44660741788007 391.4445075169586 L 153.84067442864188,481.3878611781802 L 115.16319716946559,494.36079349797586 L 0,418.4596866114062 L 0,412.6836492850659 L 112.69682902698065,334.7310037812912 L 150.62024501092432,344.30992484269876 L 184.44660741788007,391.4445075169586 Z" fill="#0077be" stroke="#333333"></path></g><g><path id="cell-00026" onclick="window.parent.postMessage({ event: 'click', terrainType: &quot;coast&quot;, id: 26,  elementId: this.id }, '*')" d="M 334.927679210185 540.4154918506307 L 308.293102228364,635.4663305885401 L 216.36341214087432,619.2082353510677 L 217.34047762103236,521.3228817712843 L 247.45578712787096,509.95629498964695 L 334.927679210185,540.4154918506307 Z" fill="#FFF0c9" stroke="#333333"></path></g><g><path id="cell-00027" onclick="window.parent.postMessage({ event: 'click', terrainType: &quot;ocean&quot;, id: 27,  elementId: this.id }, '*')" d="M 502.6630907641994 190.5559919654308 L 445.2574104721107,121.23188121803291 L 460.6881235220163,57.299326272136454 L 576.8133341971958,94.18197830902518 L 596.9065777970161,150.09608220697655 L 566.5494611086264,185.44537361489745 L 502.6630907641994,190.5559919654308 Z" fill="#0077be" stroke="#333333"></path></g><g><path id="cell-00028" onclick="window.parent.postMessage({ event: 'click', terrainType: &quot;coast&quot;, id: 28,  elementId: this.id }, '*')" d="M 265.0691093140919 276.7388841013912 L 213.54692275353653,263.24008097917175 L 206.49231894443614,248.37174452799184 L 237.34062848173178,141.0348599789909 L 277.11047022521996,122.31888225687477 L 328.5163003419745,171.4556238094272 L 312.3064743142652,239.01196776252033 L 265.0691093140919,276.7388841013912 Z" fill="#FFF0c9" stroke="#333333"></path></g><g><path id="cell-00029" onclick="window.parent.postMessage({ event: 'click', terrainType: &quot;coast&quot;, id: 29,  elementId: this.id }, '*')" d="M 616.3637097946198 281.11766176641396 L 683.2657192178897,239.76346793275877 L 743.3566899423145,270.7457793043054 L 711.3160066962538,352.56609949056394 L 633.078702960408,367.59927989527324 L 616.3637097946198,281.11766176641396 Z" fill="#FFF0c9" stroke="#333333"></path></g><g><path id="cell-00030" onclick="window.parent.postMessage({ event: 'click', terrainType: &quot;land&quot;, id: 30,  elementId: this.id }, '*')" d="M 449.3777314030487 452.92870458336796 L 470.2036964432602,425.23155401303404 L 512.2667700697926,418.93607716732214 L 560.0310103839786,492.9337340985382 L 544.7957540404432,517.3840877873748 L 475.8135248533485,513.6182464464493 L 449.3777314030487,452.92870458336796 Z" fill="#567d46" stroke="#333333"></path></g><g><path id="cell-00031" onclick="window.parent.postMessage({ event: 'click', terrainType: &quot;coast&quot;, id: 31,  elementId: this.id }, '*')" d="M 217.34047762103236 521.3228817712843 L 216.36341214087432,619.2082353510677 L 151.71727480249706,664.4442506018047 L 74.72015753825971,618.3981210183537 L 115.16319716946559,494.36079349797586 L 153.84067442864188,481.3878611781802 L 217.34047762103236,521.3228817712843 Z" fill="#FFF0c9" stroke="#333333"></path></g><g><path id="cell-00032" onclick="window.parent.postMessage({ event: 'click', terrainType: &quot;ocean&quot;, id: 32,  elementId: this.id }, '*')" d="M 647.798081385459 0 L 576.8133341971958,94.18197830902518 L 460.6881235220163,57.299326272136454 L 440.07229324212466,0 L 647.798081385459,0 Z" fill="#0077be" stroke="#333333"></path></g><g><path id="cell-00033" onclick="window.parent.postMessage({ event: 'click', terrainType: &quot;land&quot;, id: 33,  elementId: this.id }, '*')" d="M 436.71357614910676 372.6712056278518 L 378.3137348857183,385.1429565607181 L 351.44211087460724,345.4866833536841 L 378.6055059156161,294.83536813851447 L 411.2162392475747,284.1545071500678 L 451.92243930521164,339.4689239526638 L 436.71357614910676,372.6712056278518 Z" fill="#567d46" stroke="#333333"></path></g><g><path id="cell-00034" onclick="window.parent.postMessage({ event: 'click', terrainType: &quot;ocean&quot;, id: 34,  elementId: this.id }, '*')" d="M 328.5163003419745 171.4556238094272 L 277.11047022521996,122.31888225687477 L 290.65404448627413,0 L 440.07229324212466,0 L 460.6881235220163,57.299326272136454 L 445.2574104721107,121.23188121803291 L 380.9597958215164,169.51322919054599 L 328.5163003419745,171.4556238094272 Z" fill="#0077be" stroke="#333333"></path></g><g><path id="cell-00035" onclick="window.parent.postMessage({ event: 'click', terrainType: &quot;ocean&quot;, id: 35,  elementId: this.id }, '*')" d="M 308.293102228364 635.4663305885401 L 333.20945236200134,667.6340825492439 L 263.1761563809788,800 L 174.2866252888901,800 L 151.71727480249706,664.4442506018047 L 216.36341214087432,619.2082353510677 L 308.293102228364,635.4663305885401 Z" fill="#0077be" stroke="#333333"></path></g><g><path id="cell-00036" onclick="window.parent.postMessage({ event: 'click', terrainType: &quot;coast&quot;, id: 36,  elementId: this.id }, '*')" d="M 616.3637097946198 281.11766176641396 L 586.0912258598415,266.808609280102 L 566.5494611086264,185.44537361489745 L 596.9065777970161,150.09608220697655 L 665.8379156601331,162.4839361506612 L 683.2657192178897,239.76346793275877 L 616.3637097946198,281.11766176641396 Z" fill="#FFF0c9" stroke="#333333"></path></g><g><path id="cell-00037" onclick="window.parent.postMessage({ event: 'click', terrainType: &quot;ocean&quot;, id: 37,  elementId: this.id }, '*')" d="M 162.23292360688316 0 L 129.67933845745534,59.6451013497462 L 0,33.834376276124644 L 0,0 L 162.23292360688316,0 Z" fill="#0077be" stroke="#333333"></path></g><g><path id="cell-00038" onclick="window.parent.postMessage({ event: 'click', terrainType: &quot;coast&quot;, id: 38,  elementId: this.id }, '*')" d="M 451.92243930521164 339.4689239526638 L 411.2162392475747,284.1545071500678 L 427.41834223314095,255.9241483971833 L 479.6500938141412,243.5262453713497 L 523.5584855158277,295.5529854827207 L 514.3738081624999,329.2207448438898 L 451.92243930521164,339.4689239526638 Z" fill="#FFF0c9" stroke="#333333"></path></g><g><path id="cell-00039" onclick="window.parent.postMessage({ event: 'click', terrainType: &quot;coast&quot;, id: 39,  elementId: this.id }, '*')" d="M 514.3738081624999 329.2207448438898 L 523.5584855158277,295.5529854827207 L 586.0912258598415,266.808609280102 L 616.3637097946198,281.11766176641396 L 633.078702960408,367.59927989527324 L 626.033239886333,377.53624817865216 L 538.7393657645871,372.06307696656097 L 514.3738081624999,329.2207448438898 Z" fill="#FFF0c9" stroke="#333333"></path></g><g><path id="cell-00040" onclick="window.parent.postMessage({ event: 'click', terrainType: &quot;ocean&quot;, id: 40,  elementId: this.id }, '*')" d="M 800 664.7234657996024 L 662.0618618014252,633.0472652707758 L 696.3272610812622,504.8296664295334 L 800,468.6917175974347 L 800,664.7234657996024 Z" fill="#0077be" stroke="#333333"></path></g><g><path id="cell-00041" onclick="window.parent.postMessage({ event: 'click', terrainType: &quot;peak&quot;, id: 41,  elementId: this.id }, '*')" d="M 683.2657192178897 239.76346793275877 L 665.8379156601331,162.4839361506612 L 720.0313168139702,115.92934281683615 L 800,132.03322012890305 L 800,255.04505841796376 L 743.3566899423145,270.7457793043054 L 683.2657192178897,239.76346793275877 Z" fill="#eeeeee" stroke="#333333"></path></g><g><path id="cell-00042" onclick="window.parent.postMessage({ event: 'click', terrainType: &quot;ocean&quot;, id: 42,  elementId: this.id }, '*')" d="M 263.1761563809788 800 L 333.20945236200134,667.6340825492439 L 434.7076370367258,677.2258077936165 L 482.6208055147671,800 L 263.1761563809788,800 Z" fill="#0077be" stroke="#333333"></path></g><g><path id="cell-00043" onclick="window.parent.postMessage({ event: 'click', terrainType: &quot;ocean&quot;, id: 43,  elementId: this.id }, '*')" d="M 427.41834223314095 255.9241483971833 L 380.9597958215164,169.51322919054599 L 445.2574104721107,121.23188121803291 L 502.6630907641994,190.5559919654308 L 479.6500938141412,243.5262453713497 L 427.41834223314095,255.9241483971833 Z" fill="#0077be" stroke="#333333"></path></g><g><path id="cell-00044" onclick="window.parent.postMessage({ event: 'click', terrainType: &quot;ocean&quot;, id: 44,  elementId: this.id }, '*')" d="M 800 452.3334685171292 L 711.3160066962538,352.56609949056394 L 743.3566899423145,270.7457793043054 L 800,255.04505841796376 L 800,452.3334685171292 Z" fill="#0077be" stroke="#333333"></path></g><g><path id="cell-00045" onclick="window.parent.postMessage({ event: 'click', terrainType: &quot;ocean&quot;, id: 45,  elementId: this.id }, '*')" d="M 800 0 L 800,132.03322012890305 L 720.0313168139702,115.92934281683615 L 673.8589848894024,0 L 800,0 Z" fill="#0077be" stroke="#333333"></path></g><g><path id="cell-00046" onclick="window.parent.postMessage({ event: 'click', terrainType: &quot;ocean&quot;, id: 46,  elementId: this.id }, '*')" d="M 377.6810550293673 530.600010720639 L 427.8172880260579,559.2285835974542 L 452.62088638654575,644.0087516119129 L 434.7076370367258,677.2258077936165 L 333.20945236200134,667.6340825492439 L 308.293102228364,635.4663305885401 L 334.927679210185,540.4154918506307 L 345.0747918200202,533.4820433769188 L 377.6810550293673,530.600010720639 Z" fill="#0077be" stroke="#333333"></path></g><g><path id="cell-00047" onclick="window.parent.postMessage({ event: 'click', terrainType: &quot;ocean&quot;, id: 47,  elementId: this.id }, '*')" d="M 633.078702960408 367.59927989527324 L 711.3160066962538,352.56609949056394 L 800,452.3334685171292 L 800,468.6917175974347 L 696.3272610812622,504.8296664295334 L 634.5010182633507,464.6823628714131 L 626.033239886333,377.53624817865216 L 633.078702960408,367.59927989527324 Z" fill="#0077be" stroke="#333333"></path></g><g><path id="cell-00048" onclick="window.parent.postMessage({ event: 'click', terrainType: &quot;ocean&quot;, id: 48,  elementId: this.id }, '*')" d="M 0 800 L 0,629.4489562664579 L 74.72015753825971,618.3981210183537 L 151.71727480249706,664.4442506018047 L 174.2866252888901,800 L 0,800 Z" fill="#0077be" stroke="#333333"></path></g><g><path id="cell-00049" onclick="window.parent.postMessage({ event: 'click', terrainType: &quot;peak&quot;, id: 49,  elementId: this.id }, '*')" d="M 512.2667700697926 418.93607716732214 L 538.7393657645871,372.06307696656097 L 626.033239886333,377.53624817865216 L 634.5010182633507,464.6823628714131 L 560.0310103839786,492.9337340985382 L 512.2667700697926,418.93607716732214 Z" fill="#eeeeee" stroke="#333333"></path></g><g><text id="label-1" x="481.79122849039965" y="562.688802321051" font-size=".75em">1</text></g><g><text id="label-2" x="104.0510864794295" y="164.7698897236684" font-size=".75em">2</text></g><g><text id="label-3" x="413.01872176484255" y="416.9232988989036" font-size=".75em">3</text></g><g><text id="label-4" x="222.57480670001613" y="455.69864574217354" font-size=".75em">4</text></g><g><text id="label-5" x="422.5148725955191" y="500.31167043600914" font-size=".75em">5</text></g><g><text id="label-8" x="139.4129305941055" y="268.8336033983049" font-size=".75em">8</text></g><g><text id="label-9" x="472.7340776032291" y="378.87418941089373" font-size=".75em">9</text></g><g><text id="label-10" x="525.1728721897706" y="243.41431087697617" font-size=".75em">10</text></g><g><text id="label-13" x="601.9854792606387" y="544.1640463339457" font-size=".75em">13</text></g><g><text id="label-15" x="356.94334196938007" y="472.46674200776755" font-size=".75em">15</text></g><g><text id="label-17" x="364.7544302978028" y="244.33747724938172" font-size=".75em">17</text></g><g><text id="label-18" x="319.6229988685947" y="397.2244372489988" font-size=".75em">18</text></g><g><text id="label-19" x="219.43942814762477" y="330.95043232543986" font-size=".75em">19</text></g><g><text id="label-20" x="173.79803415098968" y="194.9316617711773" font-size=".75em">20</text></g><g><text id="label-21" x="316.8926815809474" y="301.1808004669205" font-size=".75em">21</text></g><g><text id="label-23" x="292.79790711563606" y="486.16032266612075" font-size=".75em">23</text></g><g><text id="label-26" x="264.61731820182735" y="567.0885704966552" font-size=".75em">26</text></g><g><text id="label-27" x="516.8587196228578" y="139.48148053083546" font-size=".75em">27</text></g><g><text id="label-28" x="249.38478978844324" y="216.65507627702337" font-size=".75em">28</text></g><g><text id="label-29" x="665.879372154352" y="307.4027360377581" font-size=".75em">29</text></g><g><text id="label-30" x="486.72333497793" y="472.3430683145402" font-size=".75em">30</text></g><g><text id="label-31" x="153.22098462667972" y="565.9766420193909" font-size=".75em">31</text></g><g><text id="label-33" x="397.53696314916175" y="344.4288872881626" font-size=".75em">33</text></g><g><text id="label-36" x="613.2500245008283" y="222.26000234502447" font-size=".75em">36</text></g><g><text id="label-38" x="459.5882708397206" y="298.76497016319115" font-size=".75em">38</text></g><g><text id="label-39" x="563.6673049499038" y="327.1580787539151" font-size=".75em">39</text></g><g><text id="label-43" x="437.3985142855966" y="205.28062449902197" font-size=".75em">43</text></g><g><text id="label-46" x="367.86406031005197" y="596.0197544537617" font-size=".75em">46</text></g><g><text id="label-49" x="557.4258396625403" y="426.7057932355508" font-size=".75em">49</text></g></svg>