<svg xmlns="http://www.w3.org/2000/svg" width="1600" height="1600" id="map" seed="0.10440970585212783" viewBox="0 0 1600 1600" onload="window.parent.postMessage({ event: 'register', elementId: this.id }, '*')"><script href="../svgscript.js" type="text/javascript"></script><g><path id="cell-00000" onclick="postParentMessage(event,{ event: 'click', terrainType: &quot;ocean&quot;, id: 0,  elementId: this.id }, '*')" d="M 1600 1600 L 1213.5067932476702,1600 L 1282.3233100837285,1291.7823985192958 L 1324.1237236028503,1266.0945305415516 L 1600,1329.4469315992048 L 1600,1600 Z" fill="#0077be" stroke="#333333"></path></g><g><path id="cell-00001" onclick="postParentMessage(event,{ event: 'click', terrainType: &quot;coast&quot;, id: 1,  elementId: this.id }, '*')" d="M 951.627049706697 1027.2364928928987 L 1089.5915080808863,1034.7681755747496 L 1115.7967907487407,1204.7960193248944 L 905.2417727730915,1288.0175032238258 L 855.6345760521158,1118.4571671949084 L 951.627049706697,1027.2364928928987 Z" fill="#FFF0c9" stroke="#333333"></path></g><g><path id="cell-00002" onclick="postParentMessage(event,{ event: 'click', terrainType: &quot;ocean&quot;, id: 2,  elementId: this.id }, '*')" d="M 262.3085393235939 426.6368972852938 L 231.2028617941299,437.2069036884612 L 140.6843177144446,373.76012205039774 L 146.58676408822996,259.6763002678085 L 259.90382733689967,194.96997357912957 L 331.6155513196995,266.36937283910294 L 262.3085393235939,426.6368972852938 Z" fill="#0077be" stroke="#333333"></path></g><g><path id="cell-00003" onclick="postParentMessage(event,{ event: 'click', terrainType: &quot;land&quot;, id: 3,  elementId: this.id }, '*')" d="M 873.4271522982135 745.3424112557036 L 940.4073928865204,850.4631080260681 L 898.7554628060974,905.8574091667359 L 817.3937679214296,915.1227649018637 L 742.1096086399026,839.117613114289 L 756.6274697714366,770.2859131214362 L 873.4271522982135,745.3424112557036 Z" fill="#567d46" stroke="#333333"></path></g><g><path id="cell-00004" onclick="postParentMessage(event,{ event: 'click', terrainType: &quot;coast&quot;, id: 4,  elementId: this.id }, '*')" d="M 565.0317011050175 858.2651297561936 L 494.9115742557419,1019.9125899792939 L 434.6809552420647,1042.6457635425686 L 307.68134885728375,962.7757223563603 L 368.89321483576015,782.8890150339172 L 517.3670697421852,779.1573243947146 L 565.0317011050175,858.2651297561936 Z" fill="#FFF0c9" stroke="#333333"></path></g><g><path id="cell-00005" onclick="postParentMessage(event,{ event: 'click', terrainType: &quot;coast&quot;, id: 5,  elementId: this.id }, '*')" d="M 898.7554628060974 905.8574091667359 L 951.627049706697,1027.2364928928987 L 855.6345760521158,1118.4571671949084 L 755.3621100587346,1061.200021441278 L 817.3937679214296,915.1227649018637 L 898.7554628060974,905.8574091667359 Z" fill="#FFF0c9" stroke="#333333"></path></g><g><path id="cell-00006" onclick="postParentMessage(event,{ event: 'click', terrainType: &quot;ocean&quot;, id: 6,  elementId: this.id }, '*')" d="M 231.2028617941299 437.2069036884612 L 184.10113001690365,567.7943278959434 L 0,515.6999963816954 L 0,427.6548567535491 L 140.6843177144446,373.76012205039774 L 231.2028617941299,437.2069036884612 Z" fill="#0077be" stroke="#333333"></path></g><g><path id="cell-00007" onclick="postParentMessage(event,{ event: 'click', terrainType: &quot;ocean&quot;, id: 7,  elementId: this.id }, '*')" d="M 474.68125696346357 282.0697199579818 L 331.6155513196995,266.36937283910294 L 259.90382733689967,194.96997357912957 L 259.3586769149107,119.2902026994924 L 324.4658472137663,0 L 581.3080889725483,0 L 554.2209404504399,244.63776451374954 L 474.68125696346357,282.0697199579818 Z" fill="#0077be" stroke="#333333"></path></g><g><path id="cell-00008" onclick="postParentMessage(event,{ event: 'click', terrainType: &quot;ocean&quot;, id: 8,  elementId: this.id }, '*')" d="M 412.98463788887227 496.7434890559837 L 427.09384550707307,526.4801619583435 L 301.24049002184864,688.6198496853975 L 225.3936580539613,669.4620075625824 L 184.10113001690365,567.7943278959434 L 231.2028617941299,437.2069036884612 L 262.3085393235939,426.6368972852938 L 412.98463788887227,496.7434890559837 Z" fill="#0077be" stroke="#333333"></path></g><g><path id="cell-00009" onclick="postParentMessage(event,{ event: 'click', terrainType: &quot;land&quot;, id: 9,  elementId: this.id }, '*')" d="M 873.4271522982135 745.3424112557036 L 903.8448786104233,678.9378479053275 L 1028.7476163249999,658.4414896877796 L 1077.4787315291742,744.1261539331219 L 1024.5335401395853,837.8721543346443 L 940.4073928865204,850.4631080260681 L 873.4271522982135,745.3424112557036 Z" fill="#567d46" stroke="#333333"></path></g><g><path id="cell-00010" onclick="postParentMessage(event,{ event: 'click', terrainType: &quot;coast&quot;, id: 10,  elementId: this.id }, '*')" d="M 1047.1169710316553 591.1059709654414 L 959.3001876282824,487.0524907426994 L 1005.3261815283988,381.1119839308616 L 1133.0989222172527,370.8907472297949 L 1172.182451719683,533.617218560204 L 1047.1169710316553,591.1059709654414 Z" fill="#FFF0c9" stroke="#333333"></path></g><g><path id="cell-00011" onclick="postParentMessage(event,{ event: 'click', terrainType: &quot;ocean&quot;, id: 11,  elementId: this.id }, '*')" d="M 225.3936580539613 669.4620075625824 L 0,825.3672985701318 L 0,515.6999963816954 L 184.10113001690365,567.7943278959434 L 225.3936580539613,669.4620075625824 Z" fill="#0077be" stroke="#333333"></path></g><g><path id="cell-00012" onclick="postParentMessage(event,{ event: 'click', terrainType: &quot;ocean&quot;, id: 12,  elementId: this.id }, '*')" d="M 1193.8131555940322 300.1921644139531 L 1153.6266683943916,188.36395661805037 L 1295.596162770918,0 L 1347.717969778805,0 L 1440.0626336279404,231.8586856336723 L 1331.6758313202663,324.9678723013224 L 1193.8131555940322,300.1921644139531 Z" fill="#0077be" stroke="#333333"></path></g><g><path id="cell-00013" onclick="postParentMessage(event,{ event: 'click', terrainType: &quot;coast&quot;, id: 13,  elementId: this.id }, '*')" d="M 1120.0620207679572 985.8674681970764 L 1269.0020365267014,929.3647257428262 L 1392.6545221625245,1009.6593328590668 L 1324.1237236028503,1266.0945305415516 L 1282.3233100837285,1291.7823985192958 L 1115.7967907487407,1204.7960193248944 L 1089.5915080808863,1034.7681755747496 L 1120.0620207679572,985.8674681970764 Z" fill="#FFF0c9" stroke="#333333"></path></g><g><path id="cell-00014" onclick="postParentMessage(event,{ event: 'click', terrainType: &quot;ocean&quot;, id: 14,  elementId: this.id }, '*')" d="M 1115.7967907487407 1204.7960193248944 L 1282.3233100837285,1291.7823985192958 L 1213.5067932476702,1600 L 965.2416110295342,1600 L 869.4152740734517,1354.451615587233 L 905.2417727730915,1288.0175032238258 L 1115.7967907487407,1204.7960193248944 Z" fill="#0077be" stroke="#333333"></path></g><g><path id="cell-00015" onclick="postParentMessage(event,{ event: 'click', terrainType: &quot;coast&quot;, id: 15,  elementId: this.id }, '*')" d="M 742.1096086399026 839.117613114289 L 817.3937679214296,915.1227649018637 L 755.3621100587346,1061.200021441278 L 690.1495836400404,1066.9640867538376 L 651.1417244408617,884.2378770448682 L 742.1096086399026,839.117613114289 Z" fill="#FFF0c9" stroke="#333333"></path></g><g><path id="cell-00016" onclick="postParentMessage(event,{ event: 'click', terrainType: &quot;ocean&quot;, id: 16,  elementId: this.id }, '*')" d="M 0 195.17653443876458 L 146.58676408822996,259.6763002678085 L 140.6843177144446,373.76012205039774 L 0,427.6548567535491 L 0,195.17653443876458 Z" fill="#0077be" stroke="#333333"></path></g><g><path id="cell-00017" onclick="postParentMessage(event,{ event: 'click', terrainType: &quot;coast&quot;, id: 17,  elementId: this.id }, '*')" d="M 757.2110118312322 589.6707362770289 L 624.6129486285304,478.02393552504066 L 657.032600683949,342.9112476188544 L 761.9195916430328,339.02645838109197 L 854.8366844662819,511.8482967943666 L 822.4324784951494,568.3090143001356 L 757.2110118312322,589.6707362770289 Z" fill="#FFF0c9" stroke="#333333"></path></g><g><path id="cell-00018" onclick="postParentMessage(event,{ event: 'click', terrainType: &quot;peak&quot;, id: 18,  elementId: this.id }, '*')" d="M 702.8842217492145 690.9733667073682 L 756.6274697714366,770.2859131214362 L 742.1096086399026,839.117613114289 L 651.1417244408617,884.2378770448682 L 565.0317011050175,858.2651297561936 L 517.3670697421852,779.1573243947146 L 573.2654408684073,694.6581542695639 L 702.8842217492145,690.9733667073682 Z" fill="#eeeeee" stroke="#333333"></path></g><g><path id="cell-00019" onclick="postParentMessage(event,{ event: 'click', terrainType: &quot;coast&quot;, id: 19,  elementId: this.id }, '*')" d="M 530.1382186281838 553.4777682027824 L 573.2654408684073,694.6581542695639 L 517.3670697421852,779.1573243947146 L 368.89321483576015,782.8890150339172 L 301.24049002184864,688.6198496853975 L 427.09384550707307,526.4801619583435 L 530.1382186281838,553.4777682027824 Z" fill="#FFF0c9" stroke="#333333"></path></g><g><path id="cell-00020" onclick="postParentMessage(event,{ event: 'click', terrainType: &quot;ocean&quot;, id: 20,  elementId: this.id }, '*')" d="M 412.98463788887227 496.7434890559837 L 262.3085393235939,426.6368972852938 L 331.6155513196995,266.36937283910294 L 474.68125696346357,282.0697199579818 L 412.98463788887227,496.7434890559837 Z" fill="#0077be" stroke="#333333"></path></g><g><path id="cell-00021" onclick="postParentMessage(event,{ event: 'click', terrainType: &quot;land&quot;, id: 21,  elementId: this.id }, '*')" d="M 702.8842217492145 690.9733667073682 L 573.2654408684073,694.6581542695639 L 530.1382186281838,553.4777682027824 L 624.6129486285304,478.02393552504066 L 757.2110118312322,589.6707362770289 L 702.8842217492145,690.9733667073682 Z" fill="#567d46" stroke="#333333"></path></g><g><path id="cell-00022" onclick="postParentMessage(event,{ event: 'click', terrainType: &quot;peak&quot;, id: 22,  elementId: this.id }, '*')" d="M 0 836.9193732228124 L 230.32639433893118,988.7215869959517 L 149.44031507651943,1236.7962420367073 L 0,1258.8979125329158 L 0,836.9193732228124 Z" fill="#eeeeee" stroke="#333333"></path></g><g><path id="cell-00023" onclick="postParentMessage(event,{ event: 'click', terrainType: &quot;coast&quot;, id: 23,  elementId: this.id }, '*')" d="M 565.0317011050175 858.2651297561936 L 651.1417244408617,884.2378770448682 L 690.1495836400404,1066.9640867538376 L 669.85535842037,1080.8309837012614 L 494.9115742557419,1019.9125899792939 L 565.0317011050175,858.2651297561936 Z" fill="#FFF0c9" stroke="#333333"></path></g><g><path id="cell-00024" onclick="postParentMessage(event,{ event: 'click', terrainType: &quot;ocean&quot;, id: 24,  elementId: this.id }, '*')" d="M 146.58676408822996 259.6763002678085 L 0,195.17653443876458 L 0,67.66875255224929 L 259.3586769149107,119.2902026994924 L 259.90382733689967,194.96997357912957 L 146.58676408822996,259.6763002678085 Z" fill="#0077be" stroke="#333333"></path></g><g><path id="cell-00025" onclick="postParentMessage(event,{ event: 'click', terrainType: &quot;ocean&quot;, id: 25,  elementId: this.id }, '*')" d="M 368.89321483576015 782.8890150339172 L 307.68134885728375,962.7757223563603 L 230.32639433893118,988.7215869959517 L 0,836.9193732228124 L 0,825.3672985701318 L 225.3936580539613,669.4620075625824 L 301.24049002184864,688.6198496853975 L 368.89321483576015,782.8890150339172 Z" fill="#0077be" stroke="#333333"></path></g><g><path id="cell-00026" onclick="postParentMessage(event,{ event: 'click', terrainType: &quot;coast&quot;, id: 26,  elementId: this.id }, '*')" d="M 669.85535842037 1080.8309837012614 L 616.586204456728,1270.9326611770803 L 432.72682428174863,1238.4164707021355 L 434.6809552420647,1042.6457635425686 L 494.9115742557419,1019.9125899792939 L 669.85535842037,1080.8309837012614 Z" fill="#FFF0c9" stroke="#333333"></path></g><g><path id="cell-00027" onclick="postParentMessage(event,{ event: 'click', terrainType: &quot;ocean&quot;, id: 27,  elementId: this.id }, '*')" d="M 1005.3261815283988 381.1119839308616 L 890.5148209442214,242.46376243606582 L 921.3762470440327,114.59865254427291 L 1153.6266683943916,188.36395661805037 L 1193.8131555940322,300.1921644139531 L 1133.0989222172527,370.8907472297949 L 1005.3261815283988,381.1119839308616 Z" fill="#0077be" stroke="#333333"></path></g><g><path id="cell-00028" onclick="postParentMessage(event,{ event: 'click', terrainType: &quot;coast&quot;, id: 28,  elementId: this.id }, '*')" d="M 530.1382186281838 553.4777682027824 L 427.09384550707307,526.4801619583435 L 412.98463788887227,496.7434890559837 L 474.68125696346357,282.0697199579818 L 554.2209404504399,244.63776451374954 L 657.032600683949,342.9112476188544 L 624.6129486285304,478.02393552504066 L 530.1382186281838,553.4777682027824 Z" fill="#FFF0c9" stroke="#333333"></path></g><g><path id="cell-00029" onclick="postParentMessage(event,{ event: 'click', terrainType: &quot;coast&quot;, id: 29,  elementId: this.id }, '*')" d="M 1232.7274195892396 562.2353235328279 L 1366.5314384357794,479.52693586551754 L 1486.713379884629,541.4915586086108 L 1422.6320133925076,705.1321989811279 L 1266.157405920816,735.1985597905465 L 1232.7274195892396,562.2353235328279 Z" fill="#FFF0c9" stroke="#333333"></path></g><g><path id="cell-00030" onclick="postParentMessage(event,{ event: 'click', terrainType: &quot;land&quot;, id: 30,  elementId: this.id }, '*')" d="M 898.7554628060974 905.8574091667359 L 940.4073928865204,850.4631080260681 L 1024.5335401395853,837.8721543346443 L 1120.0620207679572,985.8674681970764 L 1089.5915080808863,1034.7681755747496 L 951.627049706697,1027.2364928928987 L 898.7554628060974,905.8574091667359 Z" fill="#567d46" stroke="#333333"></path></g><g><path id="cell-00031" onclick="postParentMessage(event,{ event: 'click', terrainType: &quot;coast&quot;, id: 31,  elementId: this.id }, '*')" d="M 434.6809552420647 1042.6457635425686 L 432.72682428174863,1238.4164707021355 L 303.4345496049941,1328.8885012036094 L 149.44031507651943,1236.7962420367073 L 230.32639433893118,988.7215869959517 L 307.68134885728375,962.7757223563603 L 434.6809552420647,1042.6457635425686 Z" fill="#FFF0c9" stroke="#333333"></path></g><g><path id="cell-00032" onclick="postParentMessage(event,{ event: 'click', terrainType: &quot;ocean&quot;, id: 32,  elementId: this.id }, '*')" d="M 1295.596162770918 0 L 1153.6266683943916,188.36395661805037 L 921.3762470440327,114.59865254427291 L 880.1445864842493,0 L 1295.596162770918,0 Z" fill="#0077be" stroke="#333333"></path></g><g><path id="cell-00033" onclick="postParentMessage(event,{ event: 'click', terrainType: &quot;land&quot;, id: 33,  elementId: this.id }, '*')" d="M 873.4271522982135 745.3424112557036 L 756.6274697714366,770.2859131214362 L 702.8842217492145,690.9733667073682 L 757.2110118312322,589.6707362770289 L 822.4324784951494,568.3090143001356 L 903.8448786104233,678.9378479053275 L 873.4271522982135,745.3424112557036 Z" fill="#567d46" stroke="#333333"></path></g><g><path id="cell-00034" onclick="postParentMessage(event,{ event: 'click', terrainType: &quot;ocean&quot;, id: 34,  elementId: this.id }, '*')" d="M 657.032600683949 342.9112476188544 L 554.2209404504399,244.63776451374954 L 581.3080889725483,0 L 880.1445864842493,0 L 921.3762470440327,114.59865254427291 L 890.5148209442214,242.46376243606582 L 761.9195916430328,339.02645838109197 L 657.032600683949,342.9112476188544 Z" fill="#0077be" stroke="#333333"></path></g><g><path id="cell-00035" onclick="postParentMessage(event,{ event: 'click', terrainType: &quot;ocean&quot;, id: 35,  elementId: this.id }, '*')" d="M 616.586204456728 1270.9326611770803 L 666.4189047240027,1335.2681650984878 L 526.3523127619576,1600 L 348.5732505777802,1600 L 303.4345496049941,1328.8885012036094 L 432.72682428174863,1238.4164707021355 L 616.586204456728,1270.9326611770803 Z" fill="#0077be" stroke="#333333"></path></g><g><path id="cell-00036" onclick="postParentMessage(event,{ event: 'click', terrainType: &quot;coast&quot;, id: 36,  elementId: this.id }, '*')" d="M 1232.7274195892396 562.2353235328279 L 1172.182451719683,533.617218560204 L 1133.0989222172527,370.8907472297949 L 1193.8131555940322,300.1921644139531 L 1331.6758313202663,324.9678723013224 L 1366.5314384357794,479.52693586551754 L 1232.7274195892396,562.2353235328279 Z" fill="#FFF0c9" stroke="#333333"></path></g><g><path id="cell-00037" onclick="postParentMessage(event,{ event: 'click', terrainType: &quot;ocean&quot;, id: 37,  elementId: this.id }, '*')" d="M 324.4658472137663 0 L 259.3586769149107,119.2902026994924 L 0,67.66875255224929 L 0,0 L 324.4658472137663,0 Z" fill="#0077be" stroke="#333333"></path></g><g><path id="cell-00038" onclick="postParentMessage(event,{ event: 'click', terrainType: &quot;coast&quot;, id: 38,  elementId: this.id }, '*')" d="M 903.8448786104233 678.9378479053275 L 822.4324784951494,568.3090143001356 L 854.8366844662819,511.8482967943666 L 959.3001876282824,487.0524907426994 L 1047.1169710316553,591.1059709654414 L 1028.7476163249999,658.4414896877796 L 903.8448786104233,678.9378479053275 Z" fill="#FFF0c9" stroke="#333333"></path></g><g><path id="cell-00039" onclick="postParentMessage(event,{ event: 'click', terrainType: &quot;coast&quot;, id: 39,  elementId: this.id }, '*')" d="M 1028.7476163249999 658.4414896877796 L 1047.1169710316553,591.1059709654414 L 1172.182451719683,533.617218560204 L 1232.7274195892396,562.2353235328279 L 1266.157405920816,735.1985597905465 L 1252.066479772666,755.0724963573043 L 1077.4787315291742,744.1261539331219 L 1028.7476163249999,658.4414896877796 Z" fill="#FFF0c9" stroke="#333333"></path></g><g><path id="cell-00040" onclick="postParentMessage(event,{ event: 'click', terrainType: &quot;ocean&quot;, id: 40,  elementId: this.id }, '*')" d="M 1600 1329.4469315992048 L 1324.1237236028503,1266.0945305415516 L 1392.6545221625245,1009.6593328590668 L 1600,937.3834351948694 L 1600,1329.4469315992048 Z" fill="#0077be" stroke="#333333"></path></g><g><path id="cell-00041" onclick="postParentMessage(event,{ event: 'click', terrainType: &quot;peak&quot;, id: 41,  elementId: this.id }, '*')" d="M 1366.5314384357794 479.52693586551754 L 1331.6758313202663,324.9678723013224 L 1440.0626336279404,231.8586856336723 L 1600,264.0664402578061 L 1600,510.0901168359275 L 1486.713379884629,541.4915586086108 L 1366.5314384357794,479.52693586551754 Z" fill="#eeeeee" stroke="#333333"></path></g><g><path id="cell-00042" onclick="postParentMessage(event,{ event: 'click', terrainType: &quot;ocean&quot;, id: 42,  elementId: this.id }, '*')" d="M 526.3523127619576 1600 L 666.4189047240027,1335.2681650984878 L 869.4152740734517,1354.451615587233 L 965.2416110295342,1600 L 526.3523127619576,1600 Z" fill="#0077be" stroke="#333333"></path></g><g><path id="cell-00043" onclick="postParentMessage(event,{ event: 'click', terrainType: &quot;ocean&quot;, id: 43,  elementId: this.id }, '*')" d="M 854.8366844662819 511.8482967943666 L 761.9195916430328,339.02645838109197 L 890.5148209442214,242.46376243606582 L 1005.3261815283988,381.1119839308616 L 959.3001876282824,487.0524907426994 L 854.8366844662819,511.8482967943666 Z" fill="#0077be" stroke="#333333"></path></g><g><path id="cell-00044" onclick="postParentMessage(event,{ event: 'click', terrainType: &quot;ocean&quot;, id: 44,  elementId: this.id }, '*')" d="M 1600 904.6669370342584 L 1422.6320133925076,705.1321989811279 L 1486.713379884629,541.4915586086108 L 1600,510.0901168359275 L 1600,904.6669370342584 Z" fill="#0077be" stroke="#333333"></path></g><g><path id="cell-00045" onclick="postParentMessage(event,{ event: 'click', terrainType: &quot;ocean&quot;, id: 45,  elementId: this.id }, '*')" d="M 1600 0 L 1600,264.0664402578061 L 1440.0626336279404,231.8586856336723 L 1347.717969778805,0 L 1600,0 Z" fill="#0077be" stroke="#333333"></path></g><g><path id="cell-00046" onclick="postParentMessage(event,{ event: 'click', terrainType: &quot;ocean&quot;, id: 46,  elementId: this.id }, '*')" d="M 755.3621100587346 1061.200021441278 L 855.6345760521158,1118.4571671949084 L 905.2417727730915,1288.0175032238258 L 869.4152740734517,1354.451615587233 L 666.4189047240027,1335.2681650984878 L 616.586204456728,1270.9326611770803 L 669.85535842037,1080.8309837012614 L 690.1495836400404,1066.9640867538376 L 755.3621100587346,1061.200021441278 Z" fill="#0077be" stroke="#333333"></path></g><g><path id="cell-00047" onclick="postParentMessage(event,{ event: 'click', terrainType: &quot;ocean&quot;, id: 47,  elementId: this.id }, '*')" d="M 1266.157405920816 735.1985597905465 L 1422.6320133925076,705.1321989811279 L 1600,904.6669370342584 L 1600,937.3834351948694 L 1392.6545221625245,1009.6593328590668 L 1269.0020365267014,929.3647257428262 L 1252.066479772666,755.0724963573043 L 1266.157405920816,735.1985597905465 Z" fill="#0077be" stroke="#333333"></path></g><g><path id="cell-00048" onclick="postParentMessage(event,{ event: 'click', terrainType: &quot;ocean&quot;, id: 48,  elementId: this.id }, '*')" d="M 0 1600 L 0,1258.8979125329158 L 149.44031507651943,1236.7962420367073 L 303.4345496049941,1328.8885012036094 L 348.5732505777802,1600 L 0,1600 Z" fill="#0077be" stroke="#333333"></path></g><g><path id="cell-00049" onclick="postParentMessage(event,{ event: 'click', terrainType: &quot;peak&quot;, id: 49,  elementId: this.id }, '*')" d="M 1024.5335401395853 837.8721543346443 L 1077.4787315291742,744.1261539331219 L 1252.066479772666,755.0724963573043 L 1269.0020365267014,929.3647257428262 L 1120.0620207679572,985.8674681970764 L 1024.5335401395853,837.8721543346443 Z" fill="#eeeeee" stroke="#333333"></path></g><g><text id="label-1" x="971.5824569807993" y="1122.377604642102" font-size=".75em">1</text></g><g><text id="label-2" x="216.102172958859" y="326.5397794473368" font-size=".75em">2</text></g><g><text id="label-3" x="834.0374435296851" y="830.8465977978072" font-size=".75em">3</text></g><g><text id="label-4" x="453.14961340003225" y="908.3972914843471" font-size=".75em">4</text></g><g><text id="label-5" x="853.0297451910382" y="997.6233408720183" font-size=".75em">5</text></g><g><text id="label-8" x="286.825861188211" y="534.6672067966098" font-size=".75em">8</text></g><g><text id="label-9" x="953.4681552064582" y="754.7483788217875" font-size=".75em">9</text></g><g><text id="label-10" x="1058.3457443795412" y="483.82862175395235" font-size=".75em">10</text></g><g><text id="label-13" x="1211.9709585212775" y="1085.3280926678915" font-size=".75em">13</text></g><g><text id="label-15" x="721.8866839387601" y="941.9334840155351" font-size=".75em">15</text></g><g><text id="label-17" x="737.5088605956056" y="485.67495449876344" font-size=".75em">17</text></g><g><text id="label-18" x="647.2459977371894" y="791.4488744979976" font-size=".75em">18</text></g><g><text id="label-19" x="446.87885629524953" y="658.9008646508797" font-size=".75em">19</text></g><g><text id="label-20" x="355.59606830197936" y="386.8633235423546" font-size=".75em">20</text></g><g><text id="label-21" x="641.7853631618948" y="599.361600933841" font-size=".75em">21</text></g><g><text id="label-23" x="593.5958142312721" y="969.3206453322415" font-size=".75em">23</text></g><g><text id="label-26" x="537.2346364036547" y="1131.1771409933103" font-size=".75em">26</text></g><g><text id="label-27" x="1041.7174392457157" y="275.9629610616709" font-size=".75em">27</text></g><g><text id="label-28" x="506.7695795768865" y="430.31015255404674" font-size=".75em">28</text></g><g><text id="label-29" x="1339.758744308704" y="611.8054720755161" font-size=".75em">29</text></g><g><text id="label-30" x="981.44666995586" y="941.6861366290804" font-size=".75em">30</text></g><g><text id="label-31" x="314.44196925335945" y="1128.9532840387817" font-size=".75em">31</text></g><g><text id="label-33" x="803.0739262983235" y="685.8577745763253" font-size=".75em">33</text></g><g><text id="label-36" x="1234.5000490016566" y="441.52000469004895" font-size=".75em">36</text></g><g><text id="label-38" x="927.1765416794412" y="594.5299403263823" font-size=".75em">38</text></g><g><text id="label-39" x="1135.3346098998077" y="651.3161575078302" font-size=".75em">39</text></g><g><text id="label-43" x="882.7970285711932" y="407.56124899804394" font-size=".75em">43</text></g><g><text id="label-46" x="743.7281206201039" y="1189.0395089075234" font-size=".75em">46</text></g><g><text id="label-49" x="1122.8516793250806" y="850.4115864711016" font-size=".75em">49</text></g></svg>